<mxfile host="app.diagrams.net" modified="2021-10-22T18:59:57.628Z" agent="5.0 (Windows NT 10.0; Win64; x64) AppleWebKit/537.36 (KHTML, like Gecko) Chrome/94.0.4606.81 Safari/537.36" etag="xV0kUJXCXFIrVouWTcTN" version="15.5.8" type="github" pages="4">
  <diagram name="Pago de Servicios" id="74e2e168-ea6b-b213-b513-2b3c1d86103e">
    <mxGraphModel dx="1038" dy="579" grid="1" gridSize="10" guides="1" tooltips="1" connect="1" arrows="1" fold="1" page="1" pageScale="1" pageWidth="1500" pageHeight="1100" background="none" math="0" shadow="0">
      <root>
        <mxCell id="0" />
        <mxCell id="1" parent="0" />
        <mxCell id="77e6c97f196da883-1" value="Pool" style="swimlane;html=1;childLayout=stackLayout;startSize=20;rounded=0;shadow=0;labelBackgroundColor=none;strokeWidth=1;fontFamily=Verdana;fontSize=8;align=center;" parent="1" vertex="1">
          <mxGeometry x="90" y="40" width="640" height="1050" as="geometry" />
        </mxCell>
        <mxCell id="77e6c97f196da883-2" value="Usuario" style="swimlane;html=1;startSize=20;" parent="77e6c97f196da883-1" vertex="1">
          <mxGeometry y="20" width="160" height="1030" as="geometry" />
        </mxCell>
        <mxCell id="77e6c97f196da883-8" value="Ingresa a Whatapps o Telegram o Facebook" style="rounded=1;whiteSpace=wrap;html=1;shadow=0;labelBackgroundColor=none;strokeWidth=1;fontFamily=Verdana;fontSize=8;align=center;" parent="77e6c97f196da883-2" vertex="1">
          <mxGeometry x="20" y="47.5" width="100" height="60" as="geometry" />
        </mxCell>
        <mxCell id="77e6c97f196da883-9" value="elegir o digitar accion a realizar" style="rounded=1;whiteSpace=wrap;html=1;shadow=0;labelBackgroundColor=none;strokeWidth=1;fontFamily=Verdana;fontSize=8;align=center;" parent="77e6c97f196da883-2" vertex="1">
          <mxGeometry x="20" y="150" width="100" height="60" as="geometry" />
        </mxCell>
        <mxCell id="OKAR4cgR7abRvKczJ2H5-14" style="edgeStyle=orthogonalEdgeStyle;rounded=1;html=1;labelBackgroundColor=none;startArrow=none;startFill=0;startSize=5;endArrow=classicThin;endFill=1;endSize=5;jettySize=auto;orthogonalLoop=1;strokeWidth=1;fontFamily=Verdana;fontSize=8;entryX=0;entryY=0.5;entryDx=0;entryDy=0;" edge="1" parent="77e6c97f196da883-2" target="77e6c97f196da883-13">
          <mxGeometry relative="1" as="geometry">
            <mxPoint x="120" y="179.5" as="sourcePoint" />
            <mxPoint x="190" y="179.5" as="targetPoint" />
          </mxGeometry>
        </mxCell>
        <mxCell id="OKAR4cgR7abRvKczJ2H5-15" value="Escribe su CI/NIT o del Cliente que desea pagar" style="rounded=1;whiteSpace=wrap;html=1;shadow=0;labelBackgroundColor=none;strokeWidth=1;fontFamily=Verdana;fontSize=8;align=center;" vertex="1" parent="77e6c97f196da883-2">
          <mxGeometry x="30" y="390" width="100" height="60" as="geometry" />
        </mxCell>
        <mxCell id="OKAR4cgR7abRvKczJ2H5-22" value="Elije el Contrato a Pagar" style="rounded=1;whiteSpace=wrap;html=1;shadow=0;labelBackgroundColor=none;strokeWidth=1;fontFamily=Verdana;fontSize=8;align=center;" vertex="1" parent="77e6c97f196da883-2">
          <mxGeometry x="25" y="600" width="110" height="60" as="geometry" />
        </mxCell>
        <mxCell id="OKAR4cgR7abRvKczJ2H5-29" value="Confirma el Monto&amp;nbsp;" style="rounded=1;whiteSpace=wrap;html=1;shadow=0;labelBackgroundColor=none;strokeWidth=1;fontFamily=Verdana;fontSize=8;align=center;" vertex="1" parent="77e6c97f196da883-2">
          <mxGeometry x="25" y="710" width="100" height="60" as="geometry" />
        </mxCell>
        <mxCell id="sRfkHy_uIkAxgVObGnfX-1" value="Confirma Pregunta" style="rounded=1;whiteSpace=wrap;html=1;shadow=0;labelBackgroundColor=none;strokeWidth=1;fontFamily=Verdana;fontSize=8;align=center;" vertex="1" parent="77e6c97f196da883-2">
          <mxGeometry x="30" y="841" width="100" height="60" as="geometry" />
        </mxCell>
        <mxCell id="77e6c97f196da883-26" style="edgeStyle=orthogonalEdgeStyle;rounded=1;html=1;labelBackgroundColor=none;startArrow=none;startFill=0;startSize=5;endArrow=classicThin;endFill=1;endSize=5;jettySize=auto;orthogonalLoop=1;strokeWidth=1;fontFamily=Verdana;fontSize=8" parent="77e6c97f196da883-1" source="77e6c97f196da883-8" target="77e6c97f196da883-11" edge="1">
          <mxGeometry relative="1" as="geometry" />
        </mxCell>
        <mxCell id="77e6c97f196da883-27" style="edgeStyle=orthogonalEdgeStyle;rounded=1;html=1;labelBackgroundColor=none;startArrow=none;startFill=0;startSize=5;endArrow=classicThin;endFill=1;endSize=5;jettySize=auto;orthogonalLoop=1;strokeWidth=1;fontFamily=Verdana;fontSize=8" parent="77e6c97f196da883-1" source="77e6c97f196da883-11" target="77e6c97f196da883-9" edge="1">
          <mxGeometry relative="1" as="geometry">
            <Array as="points">
              <mxPoint x="240" y="155" />
              <mxPoint x="70" y="155" />
            </Array>
          </mxGeometry>
        </mxCell>
        <mxCell id="77e6c97f196da883-3" value="Bot" style="swimlane;html=1;startSize=20;" parent="77e6c97f196da883-1" vertex="1">
          <mxGeometry x="160" y="20" width="160" height="1030" as="geometry" />
        </mxCell>
        <mxCell id="77e6c97f196da883-11" value="Saludo Inicial mas acciones a realizar:&lt;br&gt;&lt;font color=&quot;#ff3333&quot;&gt;&lt;span style=&quot;text-align: left&quot;&gt;1.- Pagar Servicios&lt;br&gt;&lt;/span&gt;&lt;span style=&quot;text-align: left&quot;&gt;2.- Pagar Adelantado&lt;/span&gt;&lt;/font&gt;&lt;br&gt;&lt;span style=&quot;text-align: left&quot;&gt;3.- Comprar Saldo&lt;/span&gt;&lt;br&gt;&lt;div style=&quot;text-align: left&quot;&gt;&lt;span&gt;4.- Comprar Megas&lt;/span&gt;&lt;/div&gt;" style="rounded=1;whiteSpace=wrap;html=1;shadow=0;labelBackgroundColor=none;strokeWidth=1;fontFamily=Verdana;fontSize=8;align=center;" parent="77e6c97f196da883-3" vertex="1">
          <mxGeometry x="30" y="30" width="100" height="85" as="geometry" />
        </mxCell>
        <mxCell id="OKAR4cgR7abRvKczJ2H5-11" style="edgeStyle=orthogonalEdgeStyle;rounded=0;orthogonalLoop=1;jettySize=auto;html=1;exitX=1;exitY=0.5;exitDx=0;exitDy=0;entryX=1;entryY=0.75;entryDx=0;entryDy=0;" edge="1" parent="77e6c97f196da883-3" source="77e6c97f196da883-13" target="77e6c97f196da883-12">
          <mxGeometry relative="1" as="geometry" />
        </mxCell>
        <mxCell id="77e6c97f196da883-13" value="Prepagar" style="rhombus;whiteSpace=wrap;html=1;rounded=0;shadow=0;labelBackgroundColor=none;strokeWidth=1;fontFamily=Verdana;fontSize=8;align=center;" parent="77e6c97f196da883-3" vertex="1">
          <mxGeometry x="40" y="150" width="80" height="60" as="geometry" />
        </mxCell>
        <mxCell id="OKAR4cgR7abRvKczJ2H5-12" style="edgeStyle=orthogonalEdgeStyle;rounded=0;orthogonalLoop=1;jettySize=auto;html=1;exitX=1;exitY=0.5;exitDx=0;exitDy=0;entryX=1.004;entryY=0.4;entryDx=0;entryDy=0;entryPerimeter=0;" edge="1" parent="77e6c97f196da883-3" source="OKAR4cgR7abRvKczJ2H5-1" target="77e6c97f196da883-12">
          <mxGeometry relative="1" as="geometry" />
        </mxCell>
        <mxCell id="OKAR4cgR7abRvKczJ2H5-1" value="Pagar" style="rhombus;whiteSpace=wrap;html=1;rounded=0;shadow=0;labelBackgroundColor=none;strokeWidth=1;fontFamily=Verdana;fontSize=8;align=center;" vertex="1" parent="77e6c97f196da883-3">
          <mxGeometry x="40" y="240" width="80" height="60" as="geometry" />
        </mxCell>
        <mxCell id="77e6c97f196da883-12" value="Favor digite si CI o NIT" style="rounded=1;whiteSpace=wrap;html=1;shadow=0;labelBackgroundColor=none;strokeWidth=1;fontFamily=Verdana;fontSize=8;align=center;" parent="77e6c97f196da883-3" vertex="1">
          <mxGeometry x="30" y="320" width="100" height="60" as="geometry" />
        </mxCell>
        <mxCell id="77e6c97f196da883-15" value="Buscar Deudas" style="rounded=1;whiteSpace=wrap;html=1;shadow=0;labelBackgroundColor=none;strokeWidth=1;fontFamily=Verdana;fontSize=8;align=center;" parent="77e6c97f196da883-3" vertex="1">
          <mxGeometry x="30" y="430" width="100" height="60" as="geometry" />
        </mxCell>
        <mxCell id="OKAR4cgR7abRvKczJ2H5-20" value="Mostrar Contratos y Deuda" style="rounded=1;whiteSpace=wrap;html=1;shadow=0;labelBackgroundColor=none;strokeWidth=1;fontFamily=Verdana;fontSize=8;align=center;" vertex="1" parent="77e6c97f196da883-3">
          <mxGeometry x="30" y="520" width="100" height="60" as="geometry" />
        </mxCell>
        <mxCell id="OKAR4cgR7abRvKczJ2H5-21" value="" style="edgeStyle=orthogonalEdgeStyle;rounded=1;orthogonalLoop=1;jettySize=auto;html=1;fontColor=#FF3333;" edge="1" parent="77e6c97f196da883-3" source="77e6c97f196da883-15" target="OKAR4cgR7abRvKczJ2H5-20">
          <mxGeometry relative="1" as="geometry" />
        </mxCell>
        <mxCell id="OKAR4cgR7abRvKczJ2H5-24" value="Muestra el Monto&lt;br&gt;a Pagar" style="rounded=1;whiteSpace=wrap;html=1;shadow=0;labelBackgroundColor=none;strokeWidth=1;fontFamily=Verdana;fontSize=8;align=center;" vertex="1" parent="77e6c97f196da883-3">
          <mxGeometry x="30" y="600" width="100" height="60" as="geometry" />
        </mxCell>
        <mxCell id="OKAR4cgR7abRvKczJ2H5-37" value="" style="edgeStyle=orthogonalEdgeStyle;rounded=1;orthogonalLoop=1;jettySize=auto;html=1;fontColor=#FF3333;" edge="1" parent="77e6c97f196da883-3" source="OKAR4cgR7abRvKczJ2H5-31" target="OKAR4cgR7abRvKczJ2H5-36">
          <mxGeometry relative="1" as="geometry" />
        </mxCell>
        <mxCell id="OKAR4cgR7abRvKczJ2H5-31" value="Genera el QR&amp;nbsp;" style="rounded=1;whiteSpace=wrap;html=1;shadow=0;labelBackgroundColor=none;strokeWidth=1;fontFamily=Verdana;fontSize=8;align=center;" vertex="1" parent="77e6c97f196da883-3">
          <mxGeometry x="40" y="841" width="100" height="60" as="geometry" />
        </mxCell>
        <mxCell id="OKAR4cgR7abRvKczJ2H5-36" value="Muestra el QR y Mensaje Final" style="rounded=1;whiteSpace=wrap;html=1;shadow=0;labelBackgroundColor=none;strokeWidth=1;fontFamily=Verdana;fontSize=8;align=center;" vertex="1" parent="77e6c97f196da883-3">
          <mxGeometry x="40" y="941" width="100" height="60" as="geometry" />
        </mxCell>
        <mxCell id="FeBIzYd5xMfMzNx3sby8-1" value="Mensaje de Confirmacion" style="rounded=1;whiteSpace=wrap;html=1;shadow=0;labelBackgroundColor=none;strokeWidth=1;fontFamily=Verdana;fontSize=8;align=center;" vertex="1" parent="77e6c97f196da883-3">
          <mxGeometry x="30" y="740" width="100" height="60" as="geometry" />
        </mxCell>
        <mxCell id="77e6c97f196da883-4" value="Scl" style="swimlane;html=1;startSize=20;" parent="77e6c97f196da883-1" vertex="1">
          <mxGeometry x="320" y="20" width="160" height="1030" as="geometry" />
        </mxCell>
        <mxCell id="77e6c97f196da883-24" value="Buscar Deuda Pospago" style="rounded=1;whiteSpace=wrap;html=1;shadow=0;labelBackgroundColor=none;strokeWidth=1;fontFamily=Verdana;fontSize=8;align=center;" parent="77e6c97f196da883-4" vertex="1">
          <mxGeometry x="30" y="410" width="100" height="60" as="geometry" />
        </mxCell>
        <mxCell id="77e6c97f196da883-18" value="Buscar Deuda Prepago" style="rounded=1;whiteSpace=wrap;html=1;shadow=0;labelBackgroundColor=none;strokeWidth=1;fontFamily=Verdana;fontSize=8;align=center;" parent="77e6c97f196da883-4" vertex="1">
          <mxGeometry x="30" y="490" width="100" height="60" as="geometry" />
        </mxCell>
        <mxCell id="77e6c97f196da883-5" value="Tezabiz" style="swimlane;html=1;startSize=20;" parent="77e6c97f196da883-1" vertex="1">
          <mxGeometry x="480" y="20" width="160" height="1030" as="geometry" />
        </mxCell>
        <mxCell id="OKAR4cgR7abRvKczJ2H5-34" value="Generar QR" style="rounded=1;whiteSpace=wrap;html=1;shadow=0;labelBackgroundColor=none;strokeWidth=1;fontFamily=Verdana;fontSize=8;align=center;" vertex="1" parent="77e6c97f196da883-5">
          <mxGeometry x="30" y="841" width="100" height="60" as="geometry" />
        </mxCell>
        <mxCell id="OKAR4cgR7abRvKczJ2H5-8" style="edgeStyle=orthogonalEdgeStyle;rounded=1;html=1;labelBackgroundColor=none;startArrow=none;startFill=0;startSize=5;endArrow=classicThin;endFill=1;endSize=5;jettySize=auto;orthogonalLoop=1;strokeWidth=1;fontFamily=Verdana;fontSize=8;exitX=0.75;exitY=1;exitDx=0;exitDy=0;entryX=0;entryY=0.5;entryDx=0;entryDy=0;" edge="1" parent="77e6c97f196da883-1" source="77e6c97f196da883-9" target="OKAR4cgR7abRvKczJ2H5-1">
          <mxGeometry relative="1" as="geometry">
            <Array as="points">
              <mxPoint x="120" y="230" />
              <mxPoint x="120" y="290" />
            </Array>
            <mxPoint x="120" y="285" as="sourcePoint" />
            <mxPoint x="200" y="310" as="targetPoint" />
          </mxGeometry>
        </mxCell>
        <mxCell id="OKAR4cgR7abRvKczJ2H5-16" style="edgeStyle=orthogonalEdgeStyle;orthogonalLoop=1;jettySize=auto;html=1;rounded=1;" edge="1" parent="77e6c97f196da883-1" source="77e6c97f196da883-12" target="OKAR4cgR7abRvKczJ2H5-15">
          <mxGeometry relative="1" as="geometry" />
        </mxCell>
        <mxCell id="OKAR4cgR7abRvKczJ2H5-17" style="edgeStyle=orthogonalEdgeStyle;rounded=1;orthogonalLoop=1;jettySize=auto;html=1;fontColor=#FF3333;" edge="1" parent="77e6c97f196da883-1" source="OKAR4cgR7abRvKczJ2H5-15" target="77e6c97f196da883-15">
          <mxGeometry relative="1" as="geometry" />
        </mxCell>
        <mxCell id="OKAR4cgR7abRvKczJ2H5-18" style="edgeStyle=orthogonalEdgeStyle;rounded=1;orthogonalLoop=1;jettySize=auto;html=1;exitX=1;exitY=0.5;exitDx=0;exitDy=0;fontColor=#FF3333;" edge="1" parent="77e6c97f196da883-1" source="77e6c97f196da883-15" target="77e6c97f196da883-24">
          <mxGeometry relative="1" as="geometry" />
        </mxCell>
        <mxCell id="OKAR4cgR7abRvKczJ2H5-19" style="edgeStyle=orthogonalEdgeStyle;rounded=1;orthogonalLoop=1;jettySize=auto;html=1;exitX=1;exitY=0.75;exitDx=0;exitDy=0;fontColor=#FF3333;" edge="1" parent="77e6c97f196da883-1" source="77e6c97f196da883-15" target="77e6c97f196da883-18">
          <mxGeometry relative="1" as="geometry" />
        </mxCell>
        <mxCell id="OKAR4cgR7abRvKczJ2H5-26" style="edgeStyle=orthogonalEdgeStyle;rounded=1;orthogonalLoop=1;jettySize=auto;html=1;fontColor=#FF3333;" edge="1" parent="77e6c97f196da883-1" source="OKAR4cgR7abRvKczJ2H5-20" target="OKAR4cgR7abRvKczJ2H5-22">
          <mxGeometry relative="1" as="geometry" />
        </mxCell>
        <mxCell id="OKAR4cgR7abRvKczJ2H5-27" style="edgeStyle=orthogonalEdgeStyle;rounded=1;orthogonalLoop=1;jettySize=auto;html=1;entryX=0;entryY=0.5;entryDx=0;entryDy=0;fontColor=#FF3333;" edge="1" parent="77e6c97f196da883-1" source="OKAR4cgR7abRvKczJ2H5-22" target="OKAR4cgR7abRvKczJ2H5-24">
          <mxGeometry relative="1" as="geometry" />
        </mxCell>
        <mxCell id="OKAR4cgR7abRvKczJ2H5-30" value="" style="edgeStyle=orthogonalEdgeStyle;rounded=1;orthogonalLoop=1;jettySize=auto;html=1;fontColor=#FF3333;" edge="1" parent="77e6c97f196da883-1" source="OKAR4cgR7abRvKczJ2H5-24" target="OKAR4cgR7abRvKczJ2H5-29">
          <mxGeometry relative="1" as="geometry">
            <Array as="points">
              <mxPoint x="240" y="710" />
              <mxPoint x="75" y="710" />
            </Array>
          </mxGeometry>
        </mxCell>
        <mxCell id="OKAR4cgR7abRvKczJ2H5-35" value="" style="edgeStyle=orthogonalEdgeStyle;rounded=1;orthogonalLoop=1;jettySize=auto;html=1;fontColor=#FF3333;" edge="1" parent="77e6c97f196da883-1" source="OKAR4cgR7abRvKczJ2H5-31" target="OKAR4cgR7abRvKczJ2H5-34">
          <mxGeometry relative="1" as="geometry" />
        </mxCell>
        <mxCell id="FeBIzYd5xMfMzNx3sby8-2" value="" style="edgeStyle=orthogonalEdgeStyle;rounded=1;orthogonalLoop=1;jettySize=auto;html=1;fontColor=#FF3333;" edge="1" parent="77e6c97f196da883-1" source="OKAR4cgR7abRvKczJ2H5-29" target="FeBIzYd5xMfMzNx3sby8-1">
          <mxGeometry relative="1" as="geometry" />
        </mxCell>
        <mxCell id="sRfkHy_uIkAxgVObGnfX-2" value="" style="edgeStyle=orthogonalEdgeStyle;rounded=1;orthogonalLoop=1;jettySize=auto;html=1;fontColor=#FF3333;" edge="1" parent="77e6c97f196da883-1" source="FeBIzYd5xMfMzNx3sby8-1" target="sRfkHy_uIkAxgVObGnfX-1">
          <mxGeometry relative="1" as="geometry">
            <Array as="points">
              <mxPoint x="80" y="810" />
            </Array>
          </mxGeometry>
        </mxCell>
        <mxCell id="sRfkHy_uIkAxgVObGnfX-3" style="edgeStyle=orthogonalEdgeStyle;rounded=1;orthogonalLoop=1;jettySize=auto;html=1;fontColor=#FF3333;" edge="1" parent="77e6c97f196da883-1" source="sRfkHy_uIkAxgVObGnfX-1" target="OKAR4cgR7abRvKczJ2H5-31">
          <mxGeometry relative="1" as="geometry" />
        </mxCell>
      </root>
    </mxGraphModel>
  </diagram>
  <diagram name="Compra de Megas" id="wy-_vFbaJHJ49pIkBVWh">
    <mxGraphModel dx="1038" dy="579" grid="1" gridSize="10" guides="1" tooltips="1" connect="1" arrows="1" fold="1" page="1" pageScale="1" pageWidth="1500" pageHeight="1100" background="none" math="0" shadow="0">
      <root>
        <mxCell id="9UAiZVB4jK4pm2g1w1mq-0" />
        <mxCell id="9UAiZVB4jK4pm2g1w1mq-1" parent="9UAiZVB4jK4pm2g1w1mq-0" />
        <mxCell id="9UAiZVB4jK4pm2g1w1mq-2" value="Pool" style="swimlane;html=1;childLayout=stackLayout;startSize=20;rounded=0;shadow=0;labelBackgroundColor=none;strokeWidth=1;fontFamily=Verdana;fontSize=8;align=center;" vertex="1" parent="9UAiZVB4jK4pm2g1w1mq-1">
          <mxGeometry x="90" y="40" width="640" height="1150" as="geometry" />
        </mxCell>
        <mxCell id="9UAiZVB4jK4pm2g1w1mq-10" style="edgeStyle=orthogonalEdgeStyle;rounded=1;html=1;labelBackgroundColor=none;startArrow=none;startFill=0;startSize=5;endArrow=classicThin;endFill=1;endSize=5;jettySize=auto;orthogonalLoop=1;strokeWidth=1;fontFamily=Verdana;fontSize=8" edge="1" parent="9UAiZVB4jK4pm2g1w1mq-2" source="9UAiZVB4jK4pm2g1w1mq-4" target="9UAiZVB4jK4pm2g1w1mq-13">
          <mxGeometry relative="1" as="geometry" />
        </mxCell>
        <mxCell id="9UAiZVB4jK4pm2g1w1mq-3" value="Usuario" style="swimlane;html=1;startSize=20;" vertex="1" parent="9UAiZVB4jK4pm2g1w1mq-2">
          <mxGeometry y="20" width="160" height="1130" as="geometry" />
        </mxCell>
        <mxCell id="9UAiZVB4jK4pm2g1w1mq-4" value="Ingresa a Whatapps o Telegram o Facebook" style="rounded=1;whiteSpace=wrap;html=1;shadow=0;labelBackgroundColor=none;strokeWidth=1;fontFamily=Verdana;fontSize=8;align=center;" vertex="1" parent="9UAiZVB4jK4pm2g1w1mq-3">
          <mxGeometry x="20" y="47.5" width="100" height="60" as="geometry" />
        </mxCell>
        <mxCell id="9UAiZVB4jK4pm2g1w1mq-7" value="Escribe su CI/NIT o del Cliente que desea pagar" style="rounded=1;whiteSpace=wrap;html=1;shadow=0;labelBackgroundColor=none;strokeWidth=1;fontFamily=Verdana;fontSize=8;align=center;" vertex="1" parent="9UAiZVB4jK4pm2g1w1mq-3">
          <mxGeometry x="30" y="222" width="100" height="60" as="geometry" />
        </mxCell>
        <mxCell id="9UAiZVB4jK4pm2g1w1mq-8" value="Elije el Contrato a Cargar" style="rounded=1;whiteSpace=wrap;html=1;shadow=0;labelBackgroundColor=none;strokeWidth=1;fontFamily=Verdana;fontSize=8;align=center;" vertex="1" parent="9UAiZVB4jK4pm2g1w1mq-3">
          <mxGeometry x="25" y="432" width="110" height="60" as="geometry" />
        </mxCell>
        <mxCell id="9UAiZVB4jK4pm2g1w1mq-9" value="Elije tipo de Oferta" style="rounded=1;whiteSpace=wrap;html=1;shadow=0;labelBackgroundColor=none;strokeWidth=1;fontFamily=Verdana;fontSize=8;align=center;" vertex="1" parent="9UAiZVB4jK4pm2g1w1mq-3">
          <mxGeometry x="25" y="542" width="100" height="60" as="geometry" />
        </mxCell>
        <mxCell id="K9m3f2zcUMmWIvIy8zK3-5" value="Elije Oferta" style="rounded=1;whiteSpace=wrap;html=1;shadow=0;labelBackgroundColor=none;strokeWidth=1;fontFamily=Verdana;fontSize=8;align=center;" vertex="1" parent="9UAiZVB4jK4pm2g1w1mq-3">
          <mxGeometry x="25" y="700" width="100" height="60" as="geometry" />
        </mxCell>
        <mxCell id="K9m3f2zcUMmWIvIy8zK3-10" value="Confirma" style="rounded=1;whiteSpace=wrap;html=1;shadow=0;labelBackgroundColor=none;strokeWidth=1;fontFamily=Verdana;fontSize=8;align=center;" vertex="1" parent="9UAiZVB4jK4pm2g1w1mq-3">
          <mxGeometry x="35" y="820" width="100" height="60" as="geometry" />
        </mxCell>
        <mxCell id="9UAiZVB4jK4pm2g1w1mq-12" value="Bot" style="swimlane;html=1;startSize=20;" vertex="1" parent="9UAiZVB4jK4pm2g1w1mq-2">
          <mxGeometry x="160" y="20" width="160" height="1130" as="geometry" />
        </mxCell>
        <mxCell id="9UAiZVB4jK4pm2g1w1mq-41" style="edgeStyle=orthogonalEdgeStyle;rounded=1;orthogonalLoop=1;jettySize=auto;html=1;fontColor=#FF3333;" edge="1" parent="9UAiZVB4jK4pm2g1w1mq-12" source="9UAiZVB4jK4pm2g1w1mq-13" target="9UAiZVB4jK4pm2g1w1mq-18">
          <mxGeometry relative="1" as="geometry" />
        </mxCell>
        <mxCell id="9UAiZVB4jK4pm2g1w1mq-13" value="Saludo Inicial mas acciones a realizar:&lt;br&gt;&lt;span style=&quot;text-align: left&quot;&gt;1.- Pagar Servicios&lt;br&gt;&lt;/span&gt;&lt;span style=&quot;text-align: left&quot;&gt;2.- Pagar Adelantado&lt;/span&gt;&lt;br&gt;&lt;span style=&quot;text-align: left&quot;&gt;3.- Comprar Saldo&lt;/span&gt;&lt;br&gt;&lt;div style=&quot;text-align: left&quot;&gt;4.- &lt;font color=&quot;#ff3333&quot;&gt;Comprar Megas&lt;/font&gt;&lt;/div&gt;" style="rounded=1;whiteSpace=wrap;html=1;shadow=0;labelBackgroundColor=none;strokeWidth=1;fontFamily=Verdana;fontSize=8;align=center;" vertex="1" parent="9UAiZVB4jK4pm2g1w1mq-12">
          <mxGeometry x="30" y="30" width="100" height="85" as="geometry" />
        </mxCell>
        <mxCell id="9UAiZVB4jK4pm2g1w1mq-18" value="Favor digite si CI o NIT" style="rounded=1;whiteSpace=wrap;html=1;shadow=0;labelBackgroundColor=none;strokeWidth=1;fontFamily=Verdana;fontSize=8;align=center;" vertex="1" parent="9UAiZVB4jK4pm2g1w1mq-12">
          <mxGeometry x="30" y="160" width="100" height="60" as="geometry" />
        </mxCell>
        <mxCell id="9UAiZVB4jK4pm2g1w1mq-19" value="Buscar Contrato para Carga LTE" style="rounded=1;whiteSpace=wrap;html=1;shadow=0;labelBackgroundColor=none;strokeWidth=1;fontFamily=Verdana;fontSize=8;align=center;" vertex="1" parent="9UAiZVB4jK4pm2g1w1mq-12">
          <mxGeometry x="30" y="262" width="100" height="60" as="geometry" />
        </mxCell>
        <mxCell id="9UAiZVB4jK4pm2g1w1mq-20" value="Mostrar Contratos LTE" style="rounded=1;whiteSpace=wrap;html=1;shadow=0;labelBackgroundColor=none;strokeWidth=1;fontFamily=Verdana;fontSize=8;align=center;" vertex="1" parent="9UAiZVB4jK4pm2g1w1mq-12">
          <mxGeometry x="30" y="352" width="100" height="60" as="geometry" />
        </mxCell>
        <mxCell id="9UAiZVB4jK4pm2g1w1mq-21" value="" style="edgeStyle=orthogonalEdgeStyle;rounded=1;orthogonalLoop=1;jettySize=auto;html=1;fontColor=#FF3333;" edge="1" parent="9UAiZVB4jK4pm2g1w1mq-12" source="9UAiZVB4jK4pm2g1w1mq-19" target="9UAiZVB4jK4pm2g1w1mq-20">
          <mxGeometry relative="1" as="geometry" />
        </mxCell>
        <mxCell id="9UAiZVB4jK4pm2g1w1mq-22" value="Despliega tipo de oferta:&lt;br&gt;1.- Diarias&lt;br&gt;2.- Semanales&lt;br&gt;3.- Mensuales" style="rounded=1;whiteSpace=wrap;html=1;shadow=0;labelBackgroundColor=none;strokeWidth=1;fontFamily=Verdana;fontSize=8;align=center;" vertex="1" parent="9UAiZVB4jK4pm2g1w1mq-12">
          <mxGeometry x="30" y="432" width="100" height="60" as="geometry" />
        </mxCell>
        <mxCell id="9UAiZVB4jK4pm2g1w1mq-23" value="" style="edgeStyle=orthogonalEdgeStyle;rounded=1;orthogonalLoop=1;jettySize=auto;html=1;fontColor=#FF3333;" edge="1" parent="9UAiZVB4jK4pm2g1w1mq-12" source="9UAiZVB4jK4pm2g1w1mq-24" target="9UAiZVB4jK4pm2g1w1mq-25">
          <mxGeometry relative="1" as="geometry" />
        </mxCell>
        <mxCell id="9UAiZVB4jK4pm2g1w1mq-24" value="Genera el QR&amp;nbsp;" style="rounded=1;whiteSpace=wrap;html=1;shadow=0;labelBackgroundColor=none;strokeWidth=1;fontFamily=Verdana;fontSize=8;align=center;" vertex="1" parent="9UAiZVB4jK4pm2g1w1mq-12">
          <mxGeometry x="40" y="890" width="100" height="60" as="geometry" />
        </mxCell>
        <mxCell id="9UAiZVB4jK4pm2g1w1mq-25" value="Muestra el QR y Mensaje Final" style="rounded=1;whiteSpace=wrap;html=1;shadow=0;labelBackgroundColor=none;strokeWidth=1;fontFamily=Verdana;fontSize=8;align=center;" vertex="1" parent="9UAiZVB4jK4pm2g1w1mq-12">
          <mxGeometry x="40" y="990" width="100" height="60" as="geometry" />
        </mxCell>
        <mxCell id="K9m3f2zcUMmWIvIy8zK3-0" value="Buscar Oferta de paquetes LTE" style="rounded=1;whiteSpace=wrap;html=1;shadow=0;labelBackgroundColor=none;strokeWidth=1;fontFamily=Verdana;fontSize=8;align=center;" vertex="1" parent="9UAiZVB4jK4pm2g1w1mq-12">
          <mxGeometry x="30" y="590" width="100" height="60" as="geometry" />
        </mxCell>
        <mxCell id="K9m3f2zcUMmWIvIy8zK3-7" value="Esta Seguro ?" style="rounded=1;whiteSpace=wrap;html=1;shadow=0;labelBackgroundColor=none;strokeWidth=1;fontFamily=Verdana;fontSize=8;align=center;" vertex="1" parent="9UAiZVB4jK4pm2g1w1mq-12">
          <mxGeometry x="30" y="750" width="100" height="60" as="geometry" />
        </mxCell>
        <mxCell id="9UAiZVB4jK4pm2g1w1mq-26" value="Scl" style="swimlane;html=1;startSize=20;" vertex="1" parent="9UAiZVB4jK4pm2g1w1mq-2">
          <mxGeometry x="320" y="20" width="160" height="1130" as="geometry" />
        </mxCell>
        <mxCell id="9UAiZVB4jK4pm2g1w1mq-27" value="Buscar Contratos" style="rounded=1;whiteSpace=wrap;html=1;shadow=0;labelBackgroundColor=none;strokeWidth=1;fontFamily=Verdana;fontSize=8;align=center;" vertex="1" parent="9UAiZVB4jK4pm2g1w1mq-26">
          <mxGeometry x="30" y="262" width="100" height="60" as="geometry" />
        </mxCell>
        <mxCell id="K9m3f2zcUMmWIvIy8zK3-1" value="Obtiene Ofertas" style="rounded=1;whiteSpace=wrap;html=1;shadow=0;labelBackgroundColor=none;strokeWidth=1;fontFamily=Verdana;fontSize=8;align=center;" vertex="1" parent="9UAiZVB4jK4pm2g1w1mq-26">
          <mxGeometry x="20" y="590" width="100" height="60" as="geometry" />
        </mxCell>
        <mxCell id="9UAiZVB4jK4pm2g1w1mq-29" value="Tezabiz" style="swimlane;html=1;startSize=20;" vertex="1" parent="9UAiZVB4jK4pm2g1w1mq-2">
          <mxGeometry x="480" y="20" width="160" height="1130" as="geometry" />
        </mxCell>
        <mxCell id="9UAiZVB4jK4pm2g1w1mq-30" value="Generar QR" style="rounded=1;whiteSpace=wrap;html=1;shadow=0;labelBackgroundColor=none;strokeWidth=1;fontFamily=Verdana;fontSize=8;align=center;" vertex="1" parent="9UAiZVB4jK4pm2g1w1mq-29">
          <mxGeometry x="30" y="890" width="100" height="60" as="geometry" />
        </mxCell>
        <mxCell id="9UAiZVB4jK4pm2g1w1mq-32" style="edgeStyle=orthogonalEdgeStyle;orthogonalLoop=1;jettySize=auto;html=1;rounded=1;" edge="1" parent="9UAiZVB4jK4pm2g1w1mq-2" source="9UAiZVB4jK4pm2g1w1mq-18" target="9UAiZVB4jK4pm2g1w1mq-7">
          <mxGeometry relative="1" as="geometry" />
        </mxCell>
        <mxCell id="9UAiZVB4jK4pm2g1w1mq-33" style="edgeStyle=orthogonalEdgeStyle;rounded=1;orthogonalLoop=1;jettySize=auto;html=1;fontColor=#FF3333;" edge="1" parent="9UAiZVB4jK4pm2g1w1mq-2" source="9UAiZVB4jK4pm2g1w1mq-7" target="9UAiZVB4jK4pm2g1w1mq-19">
          <mxGeometry relative="1" as="geometry" />
        </mxCell>
        <mxCell id="9UAiZVB4jK4pm2g1w1mq-34" style="edgeStyle=orthogonalEdgeStyle;rounded=1;orthogonalLoop=1;jettySize=auto;html=1;exitX=1;exitY=0.5;exitDx=0;exitDy=0;fontColor=#FF3333;" edge="1" parent="9UAiZVB4jK4pm2g1w1mq-2" source="9UAiZVB4jK4pm2g1w1mq-19" target="9UAiZVB4jK4pm2g1w1mq-27">
          <mxGeometry relative="1" as="geometry" />
        </mxCell>
        <mxCell id="9UAiZVB4jK4pm2g1w1mq-36" style="edgeStyle=orthogonalEdgeStyle;rounded=1;orthogonalLoop=1;jettySize=auto;html=1;fontColor=#FF3333;" edge="1" parent="9UAiZVB4jK4pm2g1w1mq-2" source="9UAiZVB4jK4pm2g1w1mq-20" target="9UAiZVB4jK4pm2g1w1mq-8">
          <mxGeometry relative="1" as="geometry" />
        </mxCell>
        <mxCell id="9UAiZVB4jK4pm2g1w1mq-37" style="edgeStyle=orthogonalEdgeStyle;rounded=1;orthogonalLoop=1;jettySize=auto;html=1;entryX=0;entryY=0.5;entryDx=0;entryDy=0;fontColor=#FF3333;" edge="1" parent="9UAiZVB4jK4pm2g1w1mq-2" source="9UAiZVB4jK4pm2g1w1mq-8" target="9UAiZVB4jK4pm2g1w1mq-22">
          <mxGeometry relative="1" as="geometry" />
        </mxCell>
        <mxCell id="9UAiZVB4jK4pm2g1w1mq-38" value="" style="edgeStyle=orthogonalEdgeStyle;rounded=1;orthogonalLoop=1;jettySize=auto;html=1;fontColor=#FF3333;" edge="1" parent="9UAiZVB4jK4pm2g1w1mq-2" source="9UAiZVB4jK4pm2g1w1mq-22" target="9UAiZVB4jK4pm2g1w1mq-9">
          <mxGeometry relative="1" as="geometry">
            <Array as="points">
              <mxPoint x="240" y="540" />
              <mxPoint x="75" y="540" />
            </Array>
          </mxGeometry>
        </mxCell>
        <mxCell id="9UAiZVB4jK4pm2g1w1mq-40" value="" style="edgeStyle=orthogonalEdgeStyle;rounded=1;orthogonalLoop=1;jettySize=auto;html=1;fontColor=#FF3333;" edge="1" parent="9UAiZVB4jK4pm2g1w1mq-2" source="9UAiZVB4jK4pm2g1w1mq-24" target="9UAiZVB4jK4pm2g1w1mq-30">
          <mxGeometry relative="1" as="geometry" />
        </mxCell>
        <mxCell id="K9m3f2zcUMmWIvIy8zK3-2" value="" style="edgeStyle=orthogonalEdgeStyle;rounded=1;orthogonalLoop=1;jettySize=auto;html=1;fontColor=#FF3333;" edge="1" parent="9UAiZVB4jK4pm2g1w1mq-2" source="K9m3f2zcUMmWIvIy8zK3-0" target="K9m3f2zcUMmWIvIy8zK3-1">
          <mxGeometry relative="1" as="geometry" />
        </mxCell>
        <mxCell id="K9m3f2zcUMmWIvIy8zK3-4" style="edgeStyle=orthogonalEdgeStyle;rounded=1;orthogonalLoop=1;jettySize=auto;html=1;fontColor=#FF3333;" edge="1" parent="9UAiZVB4jK4pm2g1w1mq-2" source="9UAiZVB4jK4pm2g1w1mq-9" target="K9m3f2zcUMmWIvIy8zK3-0">
          <mxGeometry relative="1" as="geometry" />
        </mxCell>
        <mxCell id="K9m3f2zcUMmWIvIy8zK3-6" value="" style="edgeStyle=orthogonalEdgeStyle;rounded=1;orthogonalLoop=1;jettySize=auto;html=1;fontColor=#FF3333;exitX=0;exitY=0.75;exitDx=0;exitDy=0;" edge="1" parent="9UAiZVB4jK4pm2g1w1mq-2" source="K9m3f2zcUMmWIvIy8zK3-0" target="K9m3f2zcUMmWIvIy8zK3-5">
          <mxGeometry relative="1" as="geometry">
            <Array as="points">
              <mxPoint x="140" y="655" />
              <mxPoint x="140" y="730" />
            </Array>
          </mxGeometry>
        </mxCell>
        <mxCell id="K9m3f2zcUMmWIvIy8zK3-8" value="" style="edgeStyle=orthogonalEdgeStyle;rounded=1;orthogonalLoop=1;jettySize=auto;html=1;fontColor=#FF3333;" edge="1" parent="9UAiZVB4jK4pm2g1w1mq-2" source="K9m3f2zcUMmWIvIy8zK3-5" target="K9m3f2zcUMmWIvIy8zK3-7">
          <mxGeometry relative="1" as="geometry" />
        </mxCell>
        <mxCell id="K9m3f2zcUMmWIvIy8zK3-11" value="" style="edgeStyle=orthogonalEdgeStyle;rounded=1;orthogonalLoop=1;jettySize=auto;html=1;fontColor=#FF3333;" edge="1" parent="9UAiZVB4jK4pm2g1w1mq-2" source="K9m3f2zcUMmWIvIy8zK3-7" target="K9m3f2zcUMmWIvIy8zK3-10">
          <mxGeometry relative="1" as="geometry">
            <Array as="points">
              <mxPoint x="240" y="870" />
            </Array>
          </mxGeometry>
        </mxCell>
        <mxCell id="K9m3f2zcUMmWIvIy8zK3-12" style="edgeStyle=orthogonalEdgeStyle;rounded=1;orthogonalLoop=1;jettySize=auto;html=1;fontColor=#FF3333;" edge="1" parent="9UAiZVB4jK4pm2g1w1mq-2" source="K9m3f2zcUMmWIvIy8zK3-10" target="9UAiZVB4jK4pm2g1w1mq-24">
          <mxGeometry relative="1" as="geometry">
            <Array as="points">
              <mxPoint x="85" y="940" />
            </Array>
          </mxGeometry>
        </mxCell>
      </root>
    </mxGraphModel>
  </diagram>
  <diagram name="Compra de Saldo" id="Dns1YCLspE6d1-3UQ_u3">
    <mxGraphModel dx="1038" dy="579" grid="1" gridSize="10" guides="1" tooltips="1" connect="1" arrows="1" fold="1" page="1" pageScale="1" pageWidth="1500" pageHeight="1100" background="none" math="0" shadow="0">
      <root>
        <mxCell id="OH096lnzsQP76AFzxkDB-0" />
        <mxCell id="OH096lnzsQP76AFzxkDB-1" parent="OH096lnzsQP76AFzxkDB-0" />
        <mxCell id="OH096lnzsQP76AFzxkDB-2" value="Pool" style="swimlane;html=1;childLayout=stackLayout;startSize=20;rounded=0;shadow=0;labelBackgroundColor=none;strokeWidth=1;fontFamily=Verdana;fontSize=8;align=center;" vertex="1" parent="OH096lnzsQP76AFzxkDB-1">
          <mxGeometry x="90" y="40" width="960" height="1050" as="geometry" />
        </mxCell>
        <mxCell id="OH096lnzsQP76AFzxkDB-3" value="Usuario" style="swimlane;html=1;startSize=20;" vertex="1" parent="OH096lnzsQP76AFzxkDB-2">
          <mxGeometry y="20" width="160" height="1030" as="geometry" />
        </mxCell>
        <mxCell id="OH096lnzsQP76AFzxkDB-4" value="Ingresa a Whatapps o Telegram o Facebook" style="rounded=1;whiteSpace=wrap;html=1;shadow=0;labelBackgroundColor=none;strokeWidth=1;fontFamily=Verdana;fontSize=8;align=center;" vertex="1" parent="OH096lnzsQP76AFzxkDB-3">
          <mxGeometry x="20" y="47.5" width="100" height="60" as="geometry" />
        </mxCell>
        <mxCell id="OH096lnzsQP76AFzxkDB-5" value="Digite el Numero de Telefono" style="rounded=1;whiteSpace=wrap;html=1;shadow=0;labelBackgroundColor=none;strokeWidth=1;fontFamily=Verdana;fontSize=8;align=center;" vertex="1" parent="OH096lnzsQP76AFzxkDB-3">
          <mxGeometry x="20" y="150" width="100" height="60" as="geometry" />
        </mxCell>
        <mxCell id="OH096lnzsQP76AFzxkDB-8" value="Digita el monto" style="rounded=1;whiteSpace=wrap;html=1;shadow=0;labelBackgroundColor=none;strokeWidth=1;fontFamily=Verdana;fontSize=8;align=center;" vertex="1" parent="OH096lnzsQP76AFzxkDB-3">
          <mxGeometry x="25" y="390" width="110" height="60" as="geometry" />
        </mxCell>
        <mxCell id="OH096lnzsQP76AFzxkDB-9" value="Conforma el Monto&amp;nbsp;" style="rounded=1;whiteSpace=wrap;html=1;shadow=0;labelBackgroundColor=none;strokeWidth=1;fontFamily=Verdana;fontSize=8;align=center;" vertex="1" parent="OH096lnzsQP76AFzxkDB-3">
          <mxGeometry x="25" y="610" width="100" height="60" as="geometry" />
        </mxCell>
        <mxCell id="OH096lnzsQP76AFzxkDB-10" style="edgeStyle=orthogonalEdgeStyle;rounded=1;html=1;labelBackgroundColor=none;startArrow=none;startFill=0;startSize=5;endArrow=classicThin;endFill=1;endSize=5;jettySize=auto;orthogonalLoop=1;strokeWidth=1;fontFamily=Verdana;fontSize=8" edge="1" parent="OH096lnzsQP76AFzxkDB-2" source="OH096lnzsQP76AFzxkDB-4" target="OH096lnzsQP76AFzxkDB-13">
          <mxGeometry relative="1" as="geometry" />
        </mxCell>
        <mxCell id="OH096lnzsQP76AFzxkDB-11" style="edgeStyle=orthogonalEdgeStyle;rounded=1;html=1;labelBackgroundColor=none;startArrow=none;startFill=0;startSize=5;endArrow=classicThin;endFill=1;endSize=5;jettySize=auto;orthogonalLoop=1;strokeWidth=1;fontFamily=Verdana;fontSize=8" edge="1" parent="OH096lnzsQP76AFzxkDB-2" source="OH096lnzsQP76AFzxkDB-13" target="OH096lnzsQP76AFzxkDB-5">
          <mxGeometry relative="1" as="geometry">
            <Array as="points">
              <mxPoint x="240" y="155" />
              <mxPoint x="70" y="155" />
            </Array>
          </mxGeometry>
        </mxCell>
        <mxCell id="OH096lnzsQP76AFzxkDB-12" value="Bot" style="swimlane;html=1;startSize=20;" vertex="1" parent="OH096lnzsQP76AFzxkDB-2">
          <mxGeometry x="160" y="20" width="160" height="1030" as="geometry" />
        </mxCell>
        <mxCell id="OH096lnzsQP76AFzxkDB-13" value="Saludo Inicial mas acciones a realizar:&lt;br&gt;&lt;span style=&quot;text-align: left&quot;&gt;1.- Pagar Servicios&lt;br&gt;&lt;/span&gt;&lt;span style=&quot;text-align: left&quot;&gt;2.- Pagar Adelantado&lt;/span&gt;&lt;br&gt;&lt;span style=&quot;text-align: left&quot;&gt;3.- &lt;font color=&quot;#ff3333&quot;&gt;Comprar Saldo&lt;/font&gt;&lt;/span&gt;&lt;br&gt;&lt;div style=&quot;text-align: left&quot;&gt;&lt;span&gt;4.- Comprar Megas&lt;/span&gt;&lt;/div&gt;" style="rounded=1;whiteSpace=wrap;html=1;shadow=0;labelBackgroundColor=none;strokeWidth=1;fontFamily=Verdana;fontSize=8;align=center;" vertex="1" parent="OH096lnzsQP76AFzxkDB-12">
          <mxGeometry x="30" y="30" width="100" height="85" as="geometry" />
        </mxCell>
        <mxCell id="OH096lnzsQP76AFzxkDB-19" value="Buscar Teléfono y Validación" style="rounded=1;whiteSpace=wrap;html=1;shadow=0;labelBackgroundColor=none;strokeWidth=1;fontFamily=Verdana;fontSize=8;align=center;" vertex="1" parent="OH096lnzsQP76AFzxkDB-12">
          <mxGeometry x="30" y="230" width="100" height="60" as="geometry" />
        </mxCell>
        <mxCell id="OH096lnzsQP76AFzxkDB-20" value="Pregunta el Monto a Cargar" style="rounded=1;whiteSpace=wrap;html=1;shadow=0;labelBackgroundColor=none;strokeWidth=1;fontFamily=Verdana;fontSize=8;align=center;" vertex="1" parent="OH096lnzsQP76AFzxkDB-12">
          <mxGeometry x="30" y="320" width="100" height="60" as="geometry" />
        </mxCell>
        <mxCell id="OH096lnzsQP76AFzxkDB-21" value="" style="edgeStyle=orthogonalEdgeStyle;rounded=1;orthogonalLoop=1;jettySize=auto;html=1;fontColor=#FF3333;" edge="1" parent="OH096lnzsQP76AFzxkDB-12" source="OH096lnzsQP76AFzxkDB-19" target="OH096lnzsQP76AFzxkDB-20">
          <mxGeometry relative="1" as="geometry" />
        </mxCell>
        <mxCell id="OH096lnzsQP76AFzxkDB-22" value="Mensaje de Confirmación de Monto" style="rounded=1;whiteSpace=wrap;html=1;shadow=0;labelBackgroundColor=none;strokeWidth=1;fontFamily=Verdana;fontSize=8;align=center;" vertex="1" parent="OH096lnzsQP76AFzxkDB-12">
          <mxGeometry x="30" y="440" width="100" height="60" as="geometry" />
        </mxCell>
        <mxCell id="OH096lnzsQP76AFzxkDB-23" value="" style="edgeStyle=orthogonalEdgeStyle;rounded=1;orthogonalLoop=1;jettySize=auto;html=1;fontColor=#FF3333;" edge="1" parent="OH096lnzsQP76AFzxkDB-12" source="OH096lnzsQP76AFzxkDB-24" target="OH096lnzsQP76AFzxkDB-25">
          <mxGeometry relative="1" as="geometry" />
        </mxCell>
        <mxCell id="OH096lnzsQP76AFzxkDB-24" value="Genera el QR&amp;nbsp;" style="rounded=1;whiteSpace=wrap;html=1;shadow=0;labelBackgroundColor=none;strokeWidth=1;fontFamily=Verdana;fontSize=8;align=center;" vertex="1" parent="OH096lnzsQP76AFzxkDB-12">
          <mxGeometry x="40" y="800" width="100" height="60" as="geometry" />
        </mxCell>
        <mxCell id="OH096lnzsQP76AFzxkDB-25" value="Muestra el QR y Mensaje Final" style="rounded=1;whiteSpace=wrap;html=1;shadow=0;labelBackgroundColor=none;strokeWidth=1;fontFamily=Verdana;fontSize=8;align=center;" vertex="1" parent="OH096lnzsQP76AFzxkDB-12">
          <mxGeometry x="40" y="900" width="100" height="60" as="geometry" />
        </mxCell>
        <mxCell id="OH096lnzsQP76AFzxkDB-26" value="Scl" style="swimlane;html=1;startSize=20;" vertex="1" parent="OH096lnzsQP76AFzxkDB-2">
          <mxGeometry x="320" y="20" width="160" height="1030" as="geometry" />
        </mxCell>
        <mxCell id="OH096lnzsQP76AFzxkDB-27" value="Contrato Telefonico Valido para facturar" style="rounded=1;whiteSpace=wrap;html=1;shadow=0;labelBackgroundColor=none;strokeWidth=1;fontFamily=Verdana;fontSize=8;align=center;" vertex="1" parent="OH096lnzsQP76AFzxkDB-26">
          <mxGeometry x="30" y="230" width="100" height="60" as="geometry" />
        </mxCell>
        <mxCell id="OH096lnzsQP76AFzxkDB-29" value="Tezabiz" style="swimlane;html=1;startSize=20;" vertex="1" parent="OH096lnzsQP76AFzxkDB-2">
          <mxGeometry x="480" y="20" width="160" height="1030" as="geometry" />
        </mxCell>
        <mxCell id="OH096lnzsQP76AFzxkDB-30" value="Generar QR" style="rounded=1;whiteSpace=wrap;html=1;shadow=0;labelBackgroundColor=none;strokeWidth=1;fontFamily=Verdana;fontSize=8;align=center;" vertex="1" parent="OH096lnzsQP76AFzxkDB-29">
          <mxGeometry x="30" y="800" width="100" height="60" as="geometry" />
        </mxCell>
        <mxCell id="OH096lnzsQP76AFzxkDB-36" style="edgeStyle=orthogonalEdgeStyle;rounded=1;orthogonalLoop=1;jettySize=auto;html=1;fontColor=#FF3333;" edge="1" parent="OH096lnzsQP76AFzxkDB-2" source="OH096lnzsQP76AFzxkDB-20" target="OH096lnzsQP76AFzxkDB-8">
          <mxGeometry relative="1" as="geometry">
            <Array as="points">
              <mxPoint x="90" y="370" />
            </Array>
          </mxGeometry>
        </mxCell>
        <mxCell id="OH096lnzsQP76AFzxkDB-37" style="edgeStyle=orthogonalEdgeStyle;rounded=1;orthogonalLoop=1;jettySize=auto;html=1;entryX=0;entryY=0.5;entryDx=0;entryDy=0;fontColor=#FF3333;" edge="1" parent="OH096lnzsQP76AFzxkDB-2" source="OH096lnzsQP76AFzxkDB-8" target="OH096lnzsQP76AFzxkDB-22">
          <mxGeometry relative="1" as="geometry" />
        </mxCell>
        <mxCell id="OH096lnzsQP76AFzxkDB-38" value="" style="edgeStyle=orthogonalEdgeStyle;rounded=1;orthogonalLoop=1;jettySize=auto;html=1;fontColor=#FF3333;" edge="1" parent="OH096lnzsQP76AFzxkDB-2" source="OH096lnzsQP76AFzxkDB-22" target="OH096lnzsQP76AFzxkDB-9">
          <mxGeometry relative="1" as="geometry">
            <Array as="points">
              <mxPoint x="240" y="660" />
            </Array>
          </mxGeometry>
        </mxCell>
        <mxCell id="OH096lnzsQP76AFzxkDB-39" value="" style="edgeStyle=orthogonalEdgeStyle;rounded=1;orthogonalLoop=1;jettySize=auto;html=1;fontColor=#FF3333;" edge="1" parent="OH096lnzsQP76AFzxkDB-2" source="OH096lnzsQP76AFzxkDB-9" target="OH096lnzsQP76AFzxkDB-24">
          <mxGeometry relative="1" as="geometry">
            <Array as="points">
              <mxPoint x="75" y="750" />
              <mxPoint x="250" y="750" />
            </Array>
          </mxGeometry>
        </mxCell>
        <mxCell id="OH096lnzsQP76AFzxkDB-40" value="" style="edgeStyle=orthogonalEdgeStyle;rounded=1;orthogonalLoop=1;jettySize=auto;html=1;fontColor=#FF3333;" edge="1" parent="OH096lnzsQP76AFzxkDB-2" source="OH096lnzsQP76AFzxkDB-24" target="OH096lnzsQP76AFzxkDB-30">
          <mxGeometry relative="1" as="geometry" />
        </mxCell>
        <mxCell id="wwir012yNSFYhiHsgHB7-0" style="edgeStyle=orthogonalEdgeStyle;rounded=1;orthogonalLoop=1;jettySize=auto;html=1;fontColor=#FF3333;" edge="1" parent="OH096lnzsQP76AFzxkDB-2" source="OH096lnzsQP76AFzxkDB-5" target="OH096lnzsQP76AFzxkDB-19">
          <mxGeometry relative="1" as="geometry" />
        </mxCell>
        <mxCell id="wwir012yNSFYhiHsgHB7-1" value="SISTEL" style="swimlane;html=1;startSize=20;" vertex="1" parent="OH096lnzsQP76AFzxkDB-2">
          <mxGeometry x="640" y="20" width="160" height="1030" as="geometry" />
        </mxCell>
        <mxCell id="OH096lnzsQP76AFzxkDB-28" value="Telefono Valido para Carga" style="rounded=1;whiteSpace=wrap;html=1;shadow=0;labelBackgroundColor=none;strokeWidth=1;fontFamily=Verdana;fontSize=8;align=center;" vertex="1" parent="wwir012yNSFYhiHsgHB7-1">
          <mxGeometry x="30" y="230" width="100" height="60" as="geometry" />
        </mxCell>
        <mxCell id="wwir012yNSFYhiHsgHB7-3" value="PMS" style="swimlane;html=1;startSize=20;" vertex="1" parent="OH096lnzsQP76AFzxkDB-2">
          <mxGeometry x="800" y="20" width="160" height="1030" as="geometry" />
        </mxCell>
        <mxCell id="wwir012yNSFYhiHsgHB7-5" value="Telefono Valido para Carga" style="rounded=1;whiteSpace=wrap;html=1;shadow=0;labelBackgroundColor=none;strokeWidth=1;fontFamily=Verdana;fontSize=8;align=center;" vertex="1" parent="wwir012yNSFYhiHsgHB7-3">
          <mxGeometry x="40" y="230" width="100" height="60" as="geometry" />
        </mxCell>
        <mxCell id="wwir012yNSFYhiHsgHB7-6" value="" style="edgeStyle=orthogonalEdgeStyle;rounded=1;orthogonalLoop=1;jettySize=auto;html=1;fontColor=#FF3333;" edge="1" parent="OH096lnzsQP76AFzxkDB-2" source="OH096lnzsQP76AFzxkDB-19" target="OH096lnzsQP76AFzxkDB-27">
          <mxGeometry relative="1" as="geometry" />
        </mxCell>
        <mxCell id="wwir012yNSFYhiHsgHB7-7" style="edgeStyle=orthogonalEdgeStyle;rounded=1;orthogonalLoop=1;jettySize=auto;html=1;fontColor=#FF3333;exitX=1;exitY=0.5;exitDx=0;exitDy=0;" edge="1" parent="OH096lnzsQP76AFzxkDB-2" source="OH096lnzsQP76AFzxkDB-19" target="OH096lnzsQP76AFzxkDB-28">
          <mxGeometry relative="1" as="geometry">
            <Array as="points">
              <mxPoint x="300" y="280" />
              <mxPoint x="300" y="230" />
              <mxPoint x="720" y="230" />
            </Array>
          </mxGeometry>
        </mxCell>
        <mxCell id="wwir012yNSFYhiHsgHB7-8" style="edgeStyle=orthogonalEdgeStyle;rounded=1;orthogonalLoop=1;jettySize=auto;html=1;exitX=1;exitY=0.75;exitDx=0;exitDy=0;entryX=0.5;entryY=1;entryDx=0;entryDy=0;fontColor=#FF3333;" edge="1" parent="OH096lnzsQP76AFzxkDB-2" source="OH096lnzsQP76AFzxkDB-19" target="wwir012yNSFYhiHsgHB7-5">
          <mxGeometry relative="1" as="geometry">
            <Array as="points">
              <mxPoint x="290" y="330" />
              <mxPoint x="890" y="330" />
            </Array>
          </mxGeometry>
        </mxCell>
      </root>
    </mxGraphModel>
  </diagram>
  <diagram name="borrador Compra de Megas" id="OXf_lFIrVDkP3gLz0QRX">
    <mxGraphModel dx="1038" dy="579" grid="1" gridSize="10" guides="1" tooltips="1" connect="1" arrows="1" fold="1" page="1" pageScale="1" pageWidth="1500" pageHeight="1100" background="none" math="0" shadow="0">
      <root>
        <mxCell id="Pna7G0Wqmqgo2DJ1mY1H-0" />
        <mxCell id="Pna7G0Wqmqgo2DJ1mY1H-1" parent="Pna7G0Wqmqgo2DJ1mY1H-0" />
        <mxCell id="Pna7G0Wqmqgo2DJ1mY1H-2" value="Pool" style="swimlane;html=1;childLayout=stackLayout;startSize=20;rounded=0;shadow=0;labelBackgroundColor=none;strokeWidth=1;fontFamily=Verdana;fontSize=8;align=center;" vertex="1" parent="Pna7G0Wqmqgo2DJ1mY1H-1">
          <mxGeometry x="90" y="40" width="960" height="1050" as="geometry" />
        </mxCell>
        <mxCell id="Pna7G0Wqmqgo2DJ1mY1H-3" value="Usuario" style="swimlane;html=1;startSize=20;" vertex="1" parent="Pna7G0Wqmqgo2DJ1mY1H-2">
          <mxGeometry y="20" width="160" height="1030" as="geometry" />
        </mxCell>
        <mxCell id="Pna7G0Wqmqgo2DJ1mY1H-4" value="Ingresa a Whatapps o Telegram o Facebook" style="rounded=1;whiteSpace=wrap;html=1;shadow=0;labelBackgroundColor=none;strokeWidth=1;fontFamily=Verdana;fontSize=8;align=center;" vertex="1" parent="Pna7G0Wqmqgo2DJ1mY1H-3">
          <mxGeometry x="20" y="47.5" width="100" height="60" as="geometry" />
        </mxCell>
        <mxCell id="Pna7G0Wqmqgo2DJ1mY1H-5" value="Digite el Numero de Telefono" style="rounded=1;whiteSpace=wrap;html=1;shadow=0;labelBackgroundColor=none;strokeWidth=1;fontFamily=Verdana;fontSize=8;align=center;" vertex="1" parent="Pna7G0Wqmqgo2DJ1mY1H-3">
          <mxGeometry x="20" y="150" width="100" height="60" as="geometry" />
        </mxCell>
        <mxCell id="Pna7G0Wqmqgo2DJ1mY1H-6" value="Digita el monto" style="rounded=1;whiteSpace=wrap;html=1;shadow=0;labelBackgroundColor=none;strokeWidth=1;fontFamily=Verdana;fontSize=8;align=center;" vertex="1" parent="Pna7G0Wqmqgo2DJ1mY1H-3">
          <mxGeometry x="25" y="390" width="110" height="60" as="geometry" />
        </mxCell>
        <mxCell id="Pna7G0Wqmqgo2DJ1mY1H-7" value="Confirma el Monto&amp;nbsp;" style="rounded=1;whiteSpace=wrap;html=1;shadow=0;labelBackgroundColor=none;strokeWidth=1;fontFamily=Verdana;fontSize=8;align=center;" vertex="1" parent="Pna7G0Wqmqgo2DJ1mY1H-3">
          <mxGeometry x="25" y="610" width="100" height="60" as="geometry" />
        </mxCell>
        <mxCell id="Pna7G0Wqmqgo2DJ1mY1H-8" style="edgeStyle=orthogonalEdgeStyle;rounded=1;html=1;labelBackgroundColor=none;startArrow=none;startFill=0;startSize=5;endArrow=classicThin;endFill=1;endSize=5;jettySize=auto;orthogonalLoop=1;strokeWidth=1;fontFamily=Verdana;fontSize=8" edge="1" parent="Pna7G0Wqmqgo2DJ1mY1H-2" source="Pna7G0Wqmqgo2DJ1mY1H-4" target="Pna7G0Wqmqgo2DJ1mY1H-11">
          <mxGeometry relative="1" as="geometry" />
        </mxCell>
        <mxCell id="Pna7G0Wqmqgo2DJ1mY1H-9" style="edgeStyle=orthogonalEdgeStyle;rounded=1;html=1;labelBackgroundColor=none;startArrow=none;startFill=0;startSize=5;endArrow=classicThin;endFill=1;endSize=5;jettySize=auto;orthogonalLoop=1;strokeWidth=1;fontFamily=Verdana;fontSize=8" edge="1" parent="Pna7G0Wqmqgo2DJ1mY1H-2" source="Pna7G0Wqmqgo2DJ1mY1H-11" target="Pna7G0Wqmqgo2DJ1mY1H-5">
          <mxGeometry relative="1" as="geometry">
            <Array as="points">
              <mxPoint x="240" y="155" />
              <mxPoint x="70" y="155" />
            </Array>
          </mxGeometry>
        </mxCell>
        <mxCell id="Pna7G0Wqmqgo2DJ1mY1H-10" value="Bot" style="swimlane;html=1;startSize=20;" vertex="1" parent="Pna7G0Wqmqgo2DJ1mY1H-2">
          <mxGeometry x="160" y="20" width="160" height="1030" as="geometry" />
        </mxCell>
        <mxCell id="Pna7G0Wqmqgo2DJ1mY1H-11" value="Saludo Inicial mas acciones a realizar:&lt;br&gt;&lt;span style=&quot;text-align: left&quot;&gt;1.- Pagar Servicios&lt;br&gt;&lt;/span&gt;&lt;span style=&quot;text-align: left&quot;&gt;2.- Pagar Adelantado&lt;/span&gt;&lt;br&gt;&lt;span style=&quot;text-align: left&quot;&gt;3.- Comprar Saldo&lt;/span&gt;&lt;br&gt;&lt;div style=&quot;text-align: left&quot;&gt;4.- &lt;font color=&quot;#ff3333&quot;&gt;Comprar Megas&lt;/font&gt;&lt;/div&gt;" style="rounded=1;whiteSpace=wrap;html=1;shadow=0;labelBackgroundColor=none;strokeWidth=1;fontFamily=Verdana;fontSize=8;align=center;" vertex="1" parent="Pna7G0Wqmqgo2DJ1mY1H-10">
          <mxGeometry x="30" y="30" width="100" height="85" as="geometry" />
        </mxCell>
        <mxCell id="Pna7G0Wqmqgo2DJ1mY1H-12" value="Buscar Teléfono y Validación" style="rounded=1;whiteSpace=wrap;html=1;shadow=0;labelBackgroundColor=none;strokeWidth=1;fontFamily=Verdana;fontSize=8;align=center;" vertex="1" parent="Pna7G0Wqmqgo2DJ1mY1H-10">
          <mxGeometry x="30" y="230" width="100" height="60" as="geometry" />
        </mxCell>
        <mxCell id="Pna7G0Wqmqgo2DJ1mY1H-13" value="Pregunta el Monto a Cargar" style="rounded=1;whiteSpace=wrap;html=1;shadow=0;labelBackgroundColor=none;strokeWidth=1;fontFamily=Verdana;fontSize=8;align=center;" vertex="1" parent="Pna7G0Wqmqgo2DJ1mY1H-10">
          <mxGeometry x="30" y="320" width="100" height="60" as="geometry" />
        </mxCell>
        <mxCell id="Pna7G0Wqmqgo2DJ1mY1H-14" value="" style="edgeStyle=orthogonalEdgeStyle;rounded=1;orthogonalLoop=1;jettySize=auto;html=1;fontColor=#FF3333;" edge="1" parent="Pna7G0Wqmqgo2DJ1mY1H-10" source="Pna7G0Wqmqgo2DJ1mY1H-12" target="Pna7G0Wqmqgo2DJ1mY1H-13">
          <mxGeometry relative="1" as="geometry" />
        </mxCell>
        <mxCell id="Pna7G0Wqmqgo2DJ1mY1H-15" value="Mensaje de Confirmación de Monto" style="rounded=1;whiteSpace=wrap;html=1;shadow=0;labelBackgroundColor=none;strokeWidth=1;fontFamily=Verdana;fontSize=8;align=center;" vertex="1" parent="Pna7G0Wqmqgo2DJ1mY1H-10">
          <mxGeometry x="30" y="440" width="100" height="60" as="geometry" />
        </mxCell>
        <mxCell id="Pna7G0Wqmqgo2DJ1mY1H-16" value="" style="edgeStyle=orthogonalEdgeStyle;rounded=1;orthogonalLoop=1;jettySize=auto;html=1;fontColor=#FF3333;" edge="1" parent="Pna7G0Wqmqgo2DJ1mY1H-10" source="Pna7G0Wqmqgo2DJ1mY1H-17" target="Pna7G0Wqmqgo2DJ1mY1H-18">
          <mxGeometry relative="1" as="geometry" />
        </mxCell>
        <mxCell id="Pna7G0Wqmqgo2DJ1mY1H-17" value="Genera el QR&amp;nbsp;" style="rounded=1;whiteSpace=wrap;html=1;shadow=0;labelBackgroundColor=none;strokeWidth=1;fontFamily=Verdana;fontSize=8;align=center;" vertex="1" parent="Pna7G0Wqmqgo2DJ1mY1H-10">
          <mxGeometry x="40" y="800" width="100" height="60" as="geometry" />
        </mxCell>
        <mxCell id="Pna7G0Wqmqgo2DJ1mY1H-18" value="Muestra el QR y Mensaje Final" style="rounded=1;whiteSpace=wrap;html=1;shadow=0;labelBackgroundColor=none;strokeWidth=1;fontFamily=Verdana;fontSize=8;align=center;" vertex="1" parent="Pna7G0Wqmqgo2DJ1mY1H-10">
          <mxGeometry x="40" y="900" width="100" height="60" as="geometry" />
        </mxCell>
        <mxCell id="Pna7G0Wqmqgo2DJ1mY1H-19" value="Scl" style="swimlane;html=1;startSize=20;" vertex="1" parent="Pna7G0Wqmqgo2DJ1mY1H-2">
          <mxGeometry x="320" y="20" width="160" height="1030" as="geometry" />
        </mxCell>
        <mxCell id="Pna7G0Wqmqgo2DJ1mY1H-20" value="Contrato Telefonico Valido para facturar" style="rounded=1;whiteSpace=wrap;html=1;shadow=0;labelBackgroundColor=none;strokeWidth=1;fontFamily=Verdana;fontSize=8;align=center;" vertex="1" parent="Pna7G0Wqmqgo2DJ1mY1H-19">
          <mxGeometry x="30" y="230" width="100" height="60" as="geometry" />
        </mxCell>
        <mxCell id="Pna7G0Wqmqgo2DJ1mY1H-21" value="Tezabiz" style="swimlane;html=1;startSize=20;" vertex="1" parent="Pna7G0Wqmqgo2DJ1mY1H-2">
          <mxGeometry x="480" y="20" width="160" height="1030" as="geometry" />
        </mxCell>
        <mxCell id="Pna7G0Wqmqgo2DJ1mY1H-22" value="Generar QR" style="rounded=1;whiteSpace=wrap;html=1;shadow=0;labelBackgroundColor=none;strokeWidth=1;fontFamily=Verdana;fontSize=8;align=center;" vertex="1" parent="Pna7G0Wqmqgo2DJ1mY1H-21">
          <mxGeometry x="30" y="800" width="100" height="60" as="geometry" />
        </mxCell>
        <mxCell id="Pna7G0Wqmqgo2DJ1mY1H-23" style="edgeStyle=orthogonalEdgeStyle;rounded=1;orthogonalLoop=1;jettySize=auto;html=1;fontColor=#FF3333;" edge="1" parent="Pna7G0Wqmqgo2DJ1mY1H-2" source="Pna7G0Wqmqgo2DJ1mY1H-13" target="Pna7G0Wqmqgo2DJ1mY1H-6">
          <mxGeometry relative="1" as="geometry">
            <Array as="points">
              <mxPoint x="90" y="370" />
            </Array>
          </mxGeometry>
        </mxCell>
        <mxCell id="Pna7G0Wqmqgo2DJ1mY1H-24" style="edgeStyle=orthogonalEdgeStyle;rounded=1;orthogonalLoop=1;jettySize=auto;html=1;entryX=0;entryY=0.5;entryDx=0;entryDy=0;fontColor=#FF3333;" edge="1" parent="Pna7G0Wqmqgo2DJ1mY1H-2" source="Pna7G0Wqmqgo2DJ1mY1H-6" target="Pna7G0Wqmqgo2DJ1mY1H-15">
          <mxGeometry relative="1" as="geometry" />
        </mxCell>
        <mxCell id="Pna7G0Wqmqgo2DJ1mY1H-25" value="" style="edgeStyle=orthogonalEdgeStyle;rounded=1;orthogonalLoop=1;jettySize=auto;html=1;fontColor=#FF3333;" edge="1" parent="Pna7G0Wqmqgo2DJ1mY1H-2" source="Pna7G0Wqmqgo2DJ1mY1H-15" target="Pna7G0Wqmqgo2DJ1mY1H-7">
          <mxGeometry relative="1" as="geometry">
            <Array as="points">
              <mxPoint x="240" y="660" />
            </Array>
          </mxGeometry>
        </mxCell>
        <mxCell id="Pna7G0Wqmqgo2DJ1mY1H-26" value="" style="edgeStyle=orthogonalEdgeStyle;rounded=1;orthogonalLoop=1;jettySize=auto;html=1;fontColor=#FF3333;" edge="1" parent="Pna7G0Wqmqgo2DJ1mY1H-2" source="Pna7G0Wqmqgo2DJ1mY1H-7" target="Pna7G0Wqmqgo2DJ1mY1H-17">
          <mxGeometry relative="1" as="geometry">
            <Array as="points">
              <mxPoint x="75" y="750" />
              <mxPoint x="250" y="750" />
            </Array>
          </mxGeometry>
        </mxCell>
        <mxCell id="Pna7G0Wqmqgo2DJ1mY1H-27" value="" style="edgeStyle=orthogonalEdgeStyle;rounded=1;orthogonalLoop=1;jettySize=auto;html=1;fontColor=#FF3333;" edge="1" parent="Pna7G0Wqmqgo2DJ1mY1H-2" source="Pna7G0Wqmqgo2DJ1mY1H-17" target="Pna7G0Wqmqgo2DJ1mY1H-22">
          <mxGeometry relative="1" as="geometry" />
        </mxCell>
        <mxCell id="Pna7G0Wqmqgo2DJ1mY1H-28" style="edgeStyle=orthogonalEdgeStyle;rounded=1;orthogonalLoop=1;jettySize=auto;html=1;fontColor=#FF3333;" edge="1" parent="Pna7G0Wqmqgo2DJ1mY1H-2" source="Pna7G0Wqmqgo2DJ1mY1H-5" target="Pna7G0Wqmqgo2DJ1mY1H-12">
          <mxGeometry relative="1" as="geometry" />
        </mxCell>
        <mxCell id="Pna7G0Wqmqgo2DJ1mY1H-29" value="SISTEL" style="swimlane;html=1;startSize=20;" vertex="1" parent="Pna7G0Wqmqgo2DJ1mY1H-2">
          <mxGeometry x="640" y="20" width="160" height="1030" as="geometry" />
        </mxCell>
        <mxCell id="Pna7G0Wqmqgo2DJ1mY1H-30" value="Telefono Valido para Carga" style="rounded=1;whiteSpace=wrap;html=1;shadow=0;labelBackgroundColor=none;strokeWidth=1;fontFamily=Verdana;fontSize=8;align=center;" vertex="1" parent="Pna7G0Wqmqgo2DJ1mY1H-29">
          <mxGeometry x="30" y="230" width="100" height="60" as="geometry" />
        </mxCell>
        <mxCell id="Pna7G0Wqmqgo2DJ1mY1H-31" value="PMS" style="swimlane;html=1;startSize=20;" vertex="1" parent="Pna7G0Wqmqgo2DJ1mY1H-2">
          <mxGeometry x="800" y="20" width="160" height="1030" as="geometry" />
        </mxCell>
        <mxCell id="Pna7G0Wqmqgo2DJ1mY1H-32" value="Telefono Valido para Carga" style="rounded=1;whiteSpace=wrap;html=1;shadow=0;labelBackgroundColor=none;strokeWidth=1;fontFamily=Verdana;fontSize=8;align=center;" vertex="1" parent="Pna7G0Wqmqgo2DJ1mY1H-31">
          <mxGeometry x="40" y="230" width="100" height="60" as="geometry" />
        </mxCell>
        <mxCell id="Pna7G0Wqmqgo2DJ1mY1H-33" value="" style="edgeStyle=orthogonalEdgeStyle;rounded=1;orthogonalLoop=1;jettySize=auto;html=1;fontColor=#FF3333;" edge="1" parent="Pna7G0Wqmqgo2DJ1mY1H-2" source="Pna7G0Wqmqgo2DJ1mY1H-12" target="Pna7G0Wqmqgo2DJ1mY1H-20">
          <mxGeometry relative="1" as="geometry" />
        </mxCell>
        <mxCell id="Pna7G0Wqmqgo2DJ1mY1H-34" style="edgeStyle=orthogonalEdgeStyle;rounded=1;orthogonalLoop=1;jettySize=auto;html=1;fontColor=#FF3333;exitX=1;exitY=0.5;exitDx=0;exitDy=0;" edge="1" parent="Pna7G0Wqmqgo2DJ1mY1H-2" source="Pna7G0Wqmqgo2DJ1mY1H-12" target="Pna7G0Wqmqgo2DJ1mY1H-30">
          <mxGeometry relative="1" as="geometry">
            <Array as="points">
              <mxPoint x="300" y="280" />
              <mxPoint x="300" y="230" />
              <mxPoint x="720" y="230" />
            </Array>
          </mxGeometry>
        </mxCell>
        <mxCell id="Pna7G0Wqmqgo2DJ1mY1H-35" style="edgeStyle=orthogonalEdgeStyle;rounded=1;orthogonalLoop=1;jettySize=auto;html=1;exitX=1;exitY=0.75;exitDx=0;exitDy=0;entryX=0.5;entryY=1;entryDx=0;entryDy=0;fontColor=#FF3333;" edge="1" parent="Pna7G0Wqmqgo2DJ1mY1H-2" source="Pna7G0Wqmqgo2DJ1mY1H-12" target="Pna7G0Wqmqgo2DJ1mY1H-32">
          <mxGeometry relative="1" as="geometry">
            <Array as="points">
              <mxPoint x="290" y="330" />
              <mxPoint x="890" y="330" />
            </Array>
          </mxGeometry>
        </mxCell>
      </root>
    </mxGraphModel>
  </diagram>
</mxfile>
